<svg xmlns="http://www.w3.org/2000/svg" xmlns:xlink="http://www.w3.org/1999/xlink" contentStyleType="text/css" data-diagram-type="SEQUENCE" height="656px" preserveAspectRatio="none" style="width:722px;height:656px;background:#FFFFFF;" version="1.1" viewBox="0 0 722 656" width="722px" zoomAndPan="magnify"><title>Sequence Diagram: Manage PLOs and Import Data</title><defs/><g><text fill="#000000" font-family="sans-serif" font-size="14" font-weight="bold" lengthAdjust="spacing" textLength="399.8955" x="162.7976" y="27.9951">Sequence Diagram: Manage PLOs and Import Data</text><g><title>Academic Affairs Staff</title><rect fill="#FFFFFF" height="428.9922" style="stroke:#181818;stroke-width:1;" width="10" x="80.6221" y="128.5938"/></g><g><title>Web Interface</title><rect fill="#FFFFFF" height="407.8594" style="stroke:#181818;stroke-width:1;" width="10" x="266.3438" y="149.7266"/></g><g><title>Program Controller</title><rect fill="#FFFFFF" height="87.3984" style="stroke:#181818;stroke-width:1;" width="10" x="439.1606" y="178.8594"/></g><g><title>Program Controller</title><rect fill="#FFFFFF" height="145.6641" style="stroke:#181818;stroke-width:1;" width="10" x="439.1606" y="382.7891"/></g><g><title>Excel Handler</title><rect fill="#FFFFFF" height="29.1328" style="stroke:#181818;stroke-width:1;" width="10" x="578.2368" y="411.9219"/></g><g><title>Database</title><rect fill="#FFFFFF" height="29.1328" style="stroke:#181818;stroke-width:1;" width="10" x="680.0903" y="207.9922"/></g><g><title>Database</title><rect fill="#FFFFFF" height="29.1328" style="stroke:#181818;stroke-width:1;" width="10" x="680.0903" y="470.1875"/></g><g><title>Academic Affairs Staff</title><rect fill="#000000" fill-opacity="0.00000" height="456.9922" width="8" x="81.6221" y="118.5938"/><line style="stroke:#181818;stroke-width:0.5;stroke-dasharray:5,5;" x1="85" x2="85" y1="118.5938" y2="575.5859"/></g><g><title>Web Interface</title><rect fill="#000000" fill-opacity="0.00000" height="456.9922" width="8" x="267.3438" y="118.5938"/><line style="stroke:#181818;stroke-width:0.5;stroke-dasharray:5,5;" x1="271.1079" x2="271.1079" y1="118.5938" y2="575.5859"/></g><g><title>Program Controller</title><rect fill="#000000" fill-opacity="0.00000" height="456.9922" width="8" x="440.1606" y="118.5938"/><line style="stroke:#181818;stroke-width:0.5;stroke-dasharray:5,5;" x1="443.5376" x2="443.5376" y1="118.5938" y2="575.5859"/></g><g><title>Excel Handler</title><rect fill="#000000" fill-opacity="0.00000" height="456.9922" width="8" x="579.2368" y="118.5938"/><line style="stroke:#181818;stroke-width:0.5;stroke-dasharray:5,5;" x1="582.7837" x2="582.7837" y1="118.5938" y2="575.5859"/></g><g><title>Database</title><rect fill="#000000" fill-opacity="0.00000" height="456.9922" width="8" x="681.0903" y="118.5938"/><line style="stroke:#181818;stroke-width:0.5;stroke-dasharray:5,5;" x1="684.6899" x2="684.6899" y1="118.5938" y2="575.5859"/></g><g class="participant participant-head" data-participant="AA"><text fill="#000000" font-family="sans-serif" font-size="14" lengthAdjust="spacing" textLength="155.2441" x="5" y="115.292">Academic Affairs Staff</text><ellipse cx="85.6221" cy="50.7969" fill="#E2E2F0" rx="8" ry="8" style="stroke:#181818;stroke-width:0.5;"/><path d="M85.6221,58.7969 L85.6221,85.7969 M72.6221,66.7969 L98.6221,66.7969 M85.6221,85.7969 L72.6221,100.7969 M85.6221,85.7969 L98.6221,100.7969" fill="none" style="stroke:#181818;stroke-width:0.5;"/></g><g class="participant participant-tail" data-participant="AA"><text fill="#000000" font-family="sans-serif" font-size="14" lengthAdjust="spacing" textLength="155.2441" x="5" y="587.5811">Academic Affairs Staff</text><ellipse cx="85.6221" cy="599.3828" fill="#E2E2F0" rx="8" ry="8" style="stroke:#181818;stroke-width:0.5;"/><path d="M85.6221,607.3828 L85.6221,634.3828 M72.6221,615.3828 L98.6221,615.3828 M85.6221,634.3828 L72.6221,649.3828 M85.6221,634.3828 L98.6221,649.3828" fill="none" style="stroke:#181818;stroke-width:0.5;"/></g><g class="participant participant-head" data-participant="UI"><rect fill="#E2E2F0" height="30.2969" rx="2.5" ry="2.5" style="stroke:#181818;stroke-width:0.5;" width="112.4717" x="215.1079" y="87.2969"/><text fill="#000000" font-family="sans-serif" font-size="14" lengthAdjust="spacing" textLength="98.4717" x="222.1079" y="107.292">Web Interface</text></g><g class="participant participant-tail" data-participant="UI"><rect fill="#E2E2F0" height="30.2969" rx="2.5" ry="2.5" style="stroke:#181818;stroke-width:0.5;" width="112.4717" x="215.1079" y="574.5859"/><text fill="#000000" font-family="sans-serif" font-size="14" lengthAdjust="spacing" textLength="98.4717" x="222.1079" y="594.5811">Web Interface</text></g><g class="participant participant-head" data-participant="Ctrl"><rect fill="#E2E2F0" height="30.2969" rx="2.5" ry="2.5" style="stroke:#181818;stroke-width:0.5;" width="147.2461" x="370.5376" y="87.2969"/><text fill="#000000" font-family="sans-serif" font-size="14" lengthAdjust="spacing" textLength="133.2461" x="377.5376" y="107.292">Program Controller</text></g><g class="participant participant-tail" data-participant="Ctrl"><rect fill="#E2E2F0" height="30.2969" rx="2.5" ry="2.5" style="stroke:#181818;stroke-width:0.5;" width="147.2461" x="370.5376" y="574.5859"/><text fill="#000000" font-family="sans-serif" font-size="14" lengthAdjust="spacing" textLength="133.2461" x="377.5376" y="594.5811">Program Controller</text></g><g class="participant participant-head" data-participant="Excel"><rect fill="#E2E2F0" height="30.2969" rx="2.5" ry="2.5" style="stroke:#181818;stroke-width:0.5;" width="110.9063" x="527.7837" y="87.2969"/><text fill="#000000" font-family="sans-serif" font-size="14" lengthAdjust="spacing" textLength="96.9063" x="534.7837" y="107.292">Excel Handler</text></g><g class="participant participant-tail" data-participant="Excel"><rect fill="#E2E2F0" height="30.2969" rx="2.5" ry="2.5" style="stroke:#181818;stroke-width:0.5;" width="110.9063" x="527.7837" y="574.5859"/><text fill="#000000" font-family="sans-serif" font-size="14" lengthAdjust="spacing" textLength="96.9063" x="534.7837" y="594.5811">Excel Handler</text></g><g class="participant participant-head" data-participant="DB"><text fill="#000000" font-family="sans-serif" font-size="14" lengthAdjust="spacing" textLength="66.8008" x="648.6899" y="115.292">Database</text><path d="M667.0903,66.2969 C667.0903,56.2969 685.0903,56.2969 685.0903,56.2969 C685.0903,56.2969 703.0903,56.2969 703.0903,66.2969 L703.0903,92.2969 C703.0903,102.2969 685.0903,102.2969 685.0903,102.2969 C685.0903,102.2969 667.0903,102.2969 667.0903,92.2969 L667.0903,66.2969" fill="#E2E2F0" style="stroke:#181818;stroke-width:0.5;"/><path d="M667.0903,66.2969 C667.0903,76.2969 685.0903,76.2969 685.0903,76.2969 C685.0903,76.2969 703.0903,76.2969 703.0903,66.2969" fill="none" style="stroke:#181818;stroke-width:0.5;"/></g><g class="participant participant-tail" data-participant="DB"><text fill="#000000" font-family="sans-serif" font-size="14" lengthAdjust="spacing" textLength="66.8008" x="648.6899" y="587.5811">Database</text><path d="M667.0903,600.8828 C667.0903,590.8828 685.0903,590.8828 685.0903,590.8828 C685.0903,590.8828 703.0903,590.8828 703.0903,600.8828 L703.0903,626.8828 C703.0903,636.8828 685.0903,636.8828 685.0903,636.8828 C685.0903,636.8828 667.0903,636.8828 667.0903,626.8828 L667.0903,600.8828" fill="#E2E2F0" style="stroke:#181818;stroke-width:0.5;"/><path d="M667.0903,600.8828 C667.0903,610.8828 685.0903,610.8828 685.0903,610.8828 C685.0903,610.8828 703.0903,610.8828 703.0903,600.8828" fill="none" style="stroke:#181818;stroke-width:0.5;"/></g><g><title>Academic Affairs Staff</title><rect fill="#FFFFFF" height="428.9922" style="stroke:#181818;stroke-width:1;" width="10" x="80.6221" y="128.5938"/></g><g><title>Web Interface</title><rect fill="#FFFFFF" height="407.8594" style="stroke:#181818;stroke-width:1;" width="10" x="266.3438" y="149.7266"/></g><g><title>Program Controller</title><rect fill="#FFFFFF" height="87.3984" style="stroke:#181818;stroke-width:1;" width="10" x="439.1606" y="178.8594"/></g><g><title>Program Controller</title><rect fill="#FFFFFF" height="145.6641" style="stroke:#181818;stroke-width:1;" width="10" x="439.1606" y="382.7891"/></g><g><title>Excel Handler</title><rect fill="#FFFFFF" height="29.1328" style="stroke:#181818;stroke-width:1;" width="10" x="578.2368" y="411.9219"/></g><g><title>Database</title><rect fill="#FFFFFF" height="29.1328" style="stroke:#181818;stroke-width:1;" width="10" x="680.0903" y="207.9922"/></g><g><title>Database</title><rect fill="#FFFFFF" height="29.1328" style="stroke:#181818;stroke-width:1;" width="10" x="680.0903" y="470.1875"/></g><g class="message" data-participant-1="AA" data-participant-2="UI"><polygon fill="#181818" points="254.3438,145.7266,264.3438,149.7266,254.3438,153.7266,258.3438,149.7266" style="stroke:#181818;stroke-width:1;"/><line style="stroke:#181818;stroke-width:1;" x1="90.6221" x2="260.3438" y1="149.7266" y2="149.7266"/><text fill="#000000" font-family="sans-serif" font-size="13" lengthAdjust="spacing" textLength="132.0947" x="97.6221" y="144.6606">Select Manage PLOs</text></g><g class="message" data-participant-1="UI" data-participant-2="Ctrl"><polygon fill="#181818" points="427.1606,174.8594,437.1606,178.8594,427.1606,182.8594,431.1606,178.8594" style="stroke:#181818;stroke-width:1;"/><line style="stroke:#181818;stroke-width:1;" x1="276.3438" x2="433.1606" y1="178.8594" y2="178.8594"/><text fill="#000000" font-family="sans-serif" font-size="13" lengthAdjust="spacing" textLength="114.7402" x="283.3438" y="173.7935">GetCurrentPLOs()</text></g><g class="message" data-participant-1="Ctrl" data-participant-2="DB"><polygon fill="#181818" points="668.0903,203.9922,678.0903,207.9922,668.0903,211.9922,672.0903,207.9922" style="stroke:#181818;stroke-width:1;"/><line style="stroke:#181818;stroke-width:1;" x1="449.1606" x2="674.0903" y1="207.9922" y2="207.9922"/><text fill="#000000" font-family="sans-serif" font-size="13" lengthAdjust="spacing" textLength="77.1431" x="456.1606" y="202.9263">FetchData()</text></g><g class="message" data-participant-1="DB" data-participant-2="Ctrl"><polygon fill="#181818" points="460.1606,233.125,450.1606,237.125,460.1606,241.125,456.1606,237.125" style="stroke:#181818;stroke-width:1;"/><line style="stroke:#181818;stroke-width:1;stroke-dasharray:2,2;" x1="454.1606" x2="684.0903" y1="237.125" y2="237.125"/><text fill="#000000" font-family="sans-serif" font-size="13" lengthAdjust="spacing" textLength="52.1714" x="466.1606" y="232.0591">PLO List</text></g><g class="message" data-participant-1="Ctrl" data-participant-2="UI"><polygon fill="#181818" points="287.3438,262.2578,277.3438,266.2578,287.3438,270.2578,283.3438,266.2578" style="stroke:#181818;stroke-width:1;"/><line style="stroke:#181818;stroke-width:1;stroke-dasharray:2,2;" x1="281.3438" x2="443.1606" y1="266.2578" y2="266.2578"/><text fill="#000000" font-family="sans-serif" font-size="13" lengthAdjust="spacing" textLength="117.2666" x="293.3438" y="261.1919">Display PLO Table</text></g><g class="message" data-participant-1="AA" data-participant-2="UI"><polygon fill="#181818" points="254.3438,291.3906,264.3438,295.3906,254.3438,299.3906,258.3438,295.3906" style="stroke:#181818;stroke-width:1;"/><line style="stroke:#181818;stroke-width:1;" x1="90.6221" x2="260.3438" y1="295.3906" y2="295.3906"/><text fill="#000000" font-family="sans-serif" font-size="13" lengthAdjust="spacing" textLength="151.7217" x="97.6221" y="290.3247">Click Import from Excel</text></g><g class="message" data-participant-1="UI" data-participant-2="AA"><polygon fill="#181818" points="101.6221,320.5234,91.6221,324.5234,101.6221,328.5234,97.6221,324.5234" style="stroke:#181818;stroke-width:1;"/><line style="stroke:#181818;stroke-width:1;stroke-dasharray:2,2;" x1="95.6221" x2="265.3438" y1="324.5234" y2="324.5234"/><text fill="#000000" font-family="sans-serif" font-size="13" lengthAdjust="spacing" textLength="129.9048" x="107.6221" y="319.4575">Request File Upload</text></g><g class="message" data-participant-1="AA" data-participant-2="UI"><polygon fill="#181818" points="254.3438,349.6563,264.3438,353.6563,254.3438,357.6563,258.3438,353.6563" style="stroke:#181818;stroke-width:1;"/><line style="stroke:#181818;stroke-width:1;" x1="90.6221" x2="260.3438" y1="353.6563" y2="353.6563"/><text fill="#000000" font-family="sans-serif" font-size="13" lengthAdjust="spacing" textLength="111.1792" x="97.6221" y="348.5903">Upload Excel File</text></g><g class="message" data-participant-1="UI" data-participant-2="Ctrl"><polygon fill="#181818" points="427.1606,378.7891,437.1606,382.7891,427.1606,386.7891,431.1606,382.7891" style="stroke:#181818;stroke-width:1;"/><line style="stroke:#181818;stroke-width:1;" x1="276.3438" x2="433.1606" y1="382.7891" y2="382.7891"/><text fill="#000000" font-family="sans-serif" font-size="13" lengthAdjust="spacing" textLength="125.8169" x="283.3438" y="377.7231">ProcessImport(File)</text></g><g class="message" data-participant-1="Ctrl" data-participant-2="Excel"><polygon fill="#181818" points="566.2368,407.9219,576.2368,411.9219,566.2368,415.9219,570.2368,411.9219" style="stroke:#181818;stroke-width:1;"/><line style="stroke:#181818;stroke-width:1;" x1="449.1606" x2="572.2368" y1="411.9219" y2="411.9219"/><text fill="#000000" font-family="sans-serif" font-size="13" lengthAdjust="spacing" textLength="91.4634" x="456.1606" y="406.856">ParseFile(File)</text></g><g class="message" data-participant-1="Excel" data-participant-2="Ctrl"><polygon fill="#181818" points="460.1606,437.0547,450.1606,441.0547,460.1606,445.0547,456.1606,441.0547" style="stroke:#181818;stroke-width:1;"/><line style="stroke:#181818;stroke-width:1;stroke-dasharray:2,2;" x1="454.1606" x2="582.2368" y1="441.0547" y2="441.0547"/><text fill="#000000" font-family="sans-serif" font-size="13" lengthAdjust="spacing" textLength="79.3457" x="466.1606" y="435.9888">Parsed Data</text></g><g class="message" data-participant-1="Ctrl" data-participant-2="DB"><polygon fill="#181818" points="668.0903,466.1875,678.0903,470.1875,668.0903,474.1875,672.0903,470.1875" style="stroke:#181818;stroke-width:1;"/><line style="stroke:#181818;stroke-width:1;" x1="449.1606" x2="674.0903" y1="470.1875" y2="470.1875"/><text fill="#000000" font-family="sans-serif" font-size="13" lengthAdjust="spacing" textLength="169.4253" x="456.1606" y="465.1216">BulkInsertOrUpdate(Data)</text></g><g class="message" data-participant-1="DB" data-participant-2="Ctrl"><polygon fill="#181818" points="460.1606,495.3203,450.1606,499.3203,460.1606,503.3203,456.1606,499.3203" style="stroke:#181818;stroke-width:1;"/><line style="stroke:#181818;stroke-width:1;stroke-dasharray:2,2;" x1="454.1606" x2="684.0903" y1="499.3203" y2="499.3203"/><text fill="#000000" font-family="sans-serif" font-size="13" lengthAdjust="spacing" textLength="52.3301" x="466.1606" y="494.2544">Success</text></g><g class="message" data-participant-1="Ctrl" data-participant-2="UI"><polygon fill="#181818" points="287.3438,524.4531,277.3438,528.4531,287.3438,532.4531,283.3438,528.4531" style="stroke:#181818;stroke-width:1;"/><line style="stroke:#181818;stroke-width:1;stroke-dasharray:2,2;" x1="281.3438" x2="443.1606" y1="528.4531" y2="528.4531"/><text fill="#000000" font-family="sans-serif" font-size="13" lengthAdjust="spacing" textLength="138.8169" x="293.3438" y="523.3872">Show Import Success</text></g><g class="message" data-participant-1="UI" data-participant-2="AA"><polygon fill="#181818" points="96.6221,553.5859,86.6221,557.5859,96.6221,561.5859,92.6221,557.5859" style="stroke:#181818;stroke-width:1;"/><line style="stroke:#181818;stroke-width:1;stroke-dasharray:2,2;" x1="90.6221" x2="270.3438" y1="557.5859" y2="557.5859"/><text fill="#000000" font-family="sans-serif" font-size="13" lengthAdjust="spacing" textLength="134.2402" x="102.6221" y="552.52">Display Updated List</text></g><!--SRC=[VPBBRi8m44Nt-OeHAxhW1xAeP4Xf8r61Ib7NWpC12-THU-ZZx-i758S-Df5Z7y_SUyUiM1EiwVL8hIGe5EuCDZayOeixWjLYQG7R2igcxmn3WOnPXf8x0oCXiQ96IH1rZSfOM3FMzGZGWX1PZuQLL3ss3ACNsaBPCfaQ9GLYKmw9bUbyPvXrBPjEQp81cx7HG_3kGvA61oVgp8ITh7BIjcW9HiLf5GwBQT2htf39oyg4WCcjQvyxrveafrOlf9EtAJte1UHmJpmx6aCjUsnySm63GF_nS37DOKuizrv2IZaLnHGct_LS5LWeorb5AHFhdEGLolOQFmFxZ5jDAHpQ9bvcMid3UKgrwPfJAjw4GuJ8uSaFsJBCbPlufjSTLac1k15l1MJWtqr7ahMn_jWV_nL1AE0keB7akMiuoefjaZmyNiNdbRYCy23UwL4VojQIuQNPz6xeDFQt_ibwVPHU-rNKmwpN- -xzdDulV72OH7aUJHHG_HYbUptfhn1V]--></g></svg>