<svg xmlns="http://www.w3.org/2000/svg" xmlns:xlink="http://www.w3.org/1999/xlink" contentStyleType="text/css" data-diagram-type="ACTIVITY" height="659px" preserveAspectRatio="none" style="width:704px;height:659px;background:#FFFFFF;" version="1.1" viewBox="0 0 704 659" width="704px" zoomAndPan="magnify"><title>Activity Diagram: Manage Program Structure (Core Business)</title><defs/><g><g class="title" data-source-line="1"><text fill="#000000" font-family="sans-serif" font-size="14" font-weight="bold" lengthAdjust="spacing" textLength="486.083" x="107.8396" y="32.9951">Activity Diagram: Manage Program Structure (Core Business)</text></g><rect fill="none" height="20.9531" style="stroke:none;stroke-width:1;" width="671.7622" x="15" y="50.042"/><ellipse cx="178.4766" cy="85.9951" fill="#222222" rx="10" ry="10" style="stroke:#222222;stroke-width:1;"/><rect fill="#F1F1F1" height="33.9688" rx="12.5" ry="12.5" style="stroke:#181818;stroke-width:0.5;" width="223.3203" x="66.8164" y="115.9951"/><text fill="#000000" font-family="sans-serif" font-size="12" lengthAdjust="spacing" textLength="203.3203" x="76.8164" y="137.1338">Select Manage Program Structure</text><rect fill="#F1F1F1" height="33.9688" rx="12.5" ry="12.5" style="stroke:#181818;stroke-width:0.5;" width="165.7578" x="95.5977" y="223.9326"/><text fill="#000000" font-family="sans-serif" font-size="12" lengthAdjust="spacing" textLength="145.7578" x="105.5977" y="245.0713">Update Curriculum Data</text><rect fill="#F1F1F1" height="33.9688" rx="12.5" ry="12.5" style="stroke:#181818;stroke-width:0.5;" width="160.8594" x="98.0469" y="277.9014"/><text fill="#000000" font-family="sans-serif" font-size="12" lengthAdjust="spacing" textLength="140.8594" x="108.0469" y="299.04">Adjust Credit Allocation</text><rect fill="#F1F1F1" height="33.9688" rx="12.5" ry="12.5" style="stroke:#181818;stroke-width:0.5;" width="134.6504" x="21" y="429.8389"/><text fill="#000000" font-family="sans-serif" font-size="12" lengthAdjust="spacing" textLength="114.6504" x="31" y="450.9775">Save Configuration</text><rect fill="#F1F1F1" height="33.9688" rx="12.5" ry="12.5" style="stroke:#181818;stroke-width:0.5;" width="123.3359" x="206.96" y="483.8076"/><text fill="#000000" font-family="sans-serif" font-size="12" lengthAdjust="spacing" textLength="103.3359" x="216.96" y="504.9463">Re-adjust Credits</text><ellipse cx="178.4766" cy="636.7451" fill="none" rx="11" ry="11" style="stroke:#222222;stroke-width:1;"/><ellipse cx="178.4766" cy="636.7451" fill="#222222" rx="6" ry="6" style="stroke:#222222;stroke-width:1;"/><line style="stroke:#000000;stroke-width:1.5;" x1="15" x2="15" y1="50.042" y2="647.7451"/><rect fill="#F1F1F1" height="33.9688" rx="12.5" ry="12.5" style="stroke:#181818;stroke-width:0.5;" width="228.4121" x="405.3809" y="169.9639"/><text fill="#000000" font-family="sans-serif" font-size="12" lengthAdjust="spacing" textLength="208.4121" x="415.3809" y="191.1025">Display Current Program Structure</text><rect fill="#F1F1F1" height="33.9688" rx="12.5" ry="12.5" style="stroke:#181818;stroke-width:0.5;" width="171.5293" x="433.8223" y="331.8701"/><text fill="#000000" font-family="sans-serif" font-size="12" lengthAdjust="spacing" textLength="151.5293" x="443.8223" y="353.0088">Check Credit Compliance</text><polygon fill="#F1F1F1" points="478.3423,385.8389,560.8315,385.8389,572.8315,397.8389,560.8315,409.8389,478.3423,409.8389,466.3423,397.8389,478.3423,385.8389" style="stroke:#181818;stroke-width:0.5;"/><text fill="#000000" font-family="sans-serif" font-size="11" lengthAdjust="spacing" textLength="82.4893" x="478.3423" y="401.647">Is Credit Valid?</text><text fill="#000000" font-family="sans-serif" font-size="11" lengthAdjust="spacing" textLength="19.2178" x="447.1245" y="395.2446">Yes</text><text fill="#000000" font-family="sans-serif" font-size="11" lengthAdjust="spacing" textLength="14.9585" x="572.8315" y="395.2446">No</text><rect fill="#F1F1F1" height="33.9688" rx="12.5" ry="12.5" style="stroke:#181818;stroke-width:0.5;" width="178.2793" x="340.2959" y="483.8076"/><text fill="#000000" font-family="sans-serif" font-size="12" lengthAdjust="spacing" textLength="158.2793" x="350.2959" y="504.9463">Update Program Structure</text><rect fill="#F1F1F1" height="33.9688" rx="12.5" ry="12.5" style="stroke:#181818;stroke-width:0.5;" width="107.8027" x="375.5342" y="537.7764"/><text fill="#000000" font-family="sans-serif" font-size="12" lengthAdjust="spacing" textLength="87.8027" x="385.5342" y="558.915">Notify Success</text><rect fill="#F1F1F1" height="33.9688" rx="12.5" ry="12.5" style="stroke:#181818;stroke-width:0.5;" width="142.3262" x="538.5752" y="429.8389"/><text fill="#000000" font-family="sans-serif" font-size="12" lengthAdjust="spacing" textLength="122.3262" x="548.5752" y="450.9775">Show Error Message</text><polygon fill="#F1F1F1" points="519.5869,581.7451,531.5869,593.7451,519.5869,605.7451,507.5869,593.7451,519.5869,581.7451" style="stroke:#181818;stroke-width:0.5;"/><line style="stroke:#000000;stroke-width:1.5;" x1="334.2959" x2="334.2959" y1="50.042" y2="647.7451"/><line style="stroke:#000000;stroke-width:1.5;" x1="684.9014" x2="684.9014" y1="50.042" y2="647.7451"/><line style="stroke:#181818;stroke-width:1;" x1="178.4766" x2="178.4766" y1="95.9951" y2="115.9951"/><polygon fill="#181818" points="174.4766,105.9951,178.4766,115.9951,182.4766,105.9951,178.4766,109.9951" style="stroke:#181818;stroke-width:1;"/><line style="stroke:#181818;stroke-width:1;" x1="178.4766" x2="178.4766" y1="257.9014" y2="277.9014"/><polygon fill="#181818" points="174.4766,267.9014,178.4766,277.9014,182.4766,267.9014,178.4766,271.9014" style="stroke:#181818;stroke-width:1;"/><line style="stroke:#181818;stroke-width:1;" x1="429.4355" x2="429.4355" y1="517.7764" y2="537.7764"/><polygon fill="#181818" points="425.4355,527.7764,429.4355,537.7764,433.4355,527.7764,429.4355,531.7764" style="stroke:#181818;stroke-width:1;"/><line style="stroke:#181818;stroke-width:1;" x1="572.8315" x2="609.7383" y1="397.8389" y2="397.8389"/><line style="stroke:#181818;stroke-width:1;" x1="609.7383" x2="609.7383" y1="397.8389" y2="429.8389"/><polygon fill="#181818" points="605.7383,419.8389,609.7383,429.8389,613.7383,419.8389,609.7383,423.8389" style="stroke:#181818;stroke-width:1;"/><line style="stroke:#181818;stroke-width:1;" x1="429.4355" x2="429.4355" y1="571.7451" y2="593.7451"/><line style="stroke:#181818;stroke-width:1;" x1="429.4355" x2="507.5869" y1="593.7451" y2="593.7451"/><polygon fill="#181818" points="497.5869,589.7451,507.5869,593.7451,497.5869,597.7451,501.5869,593.7451" style="stroke:#181818;stroke-width:1;"/><line style="stroke:#181818;stroke-width:1;" x1="519.5869" x2="519.5869" y1="365.8389" y2="385.8389"/><polygon fill="#181818" points="515.5869,375.8389,519.5869,385.8389,523.5869,375.8389,519.5869,379.8389" style="stroke:#181818;stroke-width:1;"/><line style="stroke:#181818;stroke-width:1;" x1="178.4766" x2="178.4766" y1="149.9639" y2="154.9639"/><line style="stroke:#181818;stroke-width:1;" x1="178.4766" x2="519.5869" y1="154.9639" y2="154.9639"/><line style="stroke:#181818;stroke-width:1;" x1="519.5869" x2="519.5869" y1="154.9639" y2="169.9639"/><polygon fill="#181818" points="515.5869,159.9639,519.5869,169.9639,523.5869,159.9639,519.5869,163.9639" style="stroke:#181818;stroke-width:1;"/><line style="stroke:#181818;stroke-width:1;" x1="519.5869" x2="519.5869" y1="203.9326" y2="208.9326"/><line style="stroke:#181818;stroke-width:1;" x1="519.5869" x2="178.4766" y1="208.9326" y2="208.9326"/><line style="stroke:#181818;stroke-width:1;" x1="178.4766" x2="178.4766" y1="208.9326" y2="223.9326"/><polygon fill="#181818" points="174.4766,213.9326,178.4766,223.9326,182.4766,213.9326,178.4766,217.9326" style="stroke:#181818;stroke-width:1;"/><line style="stroke:#181818;stroke-width:1;" x1="178.4766" x2="178.4766" y1="311.8701" y2="316.8701"/><line style="stroke:#181818;stroke-width:1;" x1="178.4766" x2="519.5869" y1="316.8701" y2="316.8701"/><line style="stroke:#181818;stroke-width:1;" x1="519.5869" x2="519.5869" y1="316.8701" y2="331.8701"/><polygon fill="#181818" points="515.5869,321.8701,519.5869,331.8701,523.5869,321.8701,519.5869,325.8701" style="stroke:#181818;stroke-width:1;"/><line style="stroke:#181818;stroke-width:1;" x1="88.3252" x2="88.3252" y1="463.8076" y2="468.8076"/><line style="stroke:#181818;stroke-width:1;" x1="88.3252" x2="429.4355" y1="468.8076" y2="468.8076"/><line style="stroke:#181818;stroke-width:1;" x1="429.4355" x2="429.4355" y1="468.8076" y2="483.8076"/><polygon fill="#181818" points="425.4355,473.8076,429.4355,483.8076,433.4355,473.8076,429.4355,477.8076" style="stroke:#181818;stroke-width:1;"/><line style="stroke:#181818;stroke-width:1;" x1="609.7383" x2="609.7383" y1="463.8076" y2="468.8076"/><line style="stroke:#181818;stroke-width:1;" x1="609.7383" x2="268.6279" y1="468.8076" y2="468.8076"/><line style="stroke:#181818;stroke-width:1;" x1="268.6279" x2="268.6279" y1="468.8076" y2="483.8076"/><polygon fill="#181818" points="264.6279,473.8076,268.6279,483.8076,272.6279,473.8076,268.6279,477.8076" style="stroke:#181818;stroke-width:1;"/><line style="stroke:#181818;stroke-width:1;" x1="466.3423" x2="88.3252" y1="397.8389" y2="397.8389"/><line style="stroke:#181818;stroke-width:1;" x1="88.3252" x2="88.3252" y1="397.8389" y2="429.8389"/><polygon fill="#181818" points="84.3252,419.8389,88.3252,429.8389,92.3252,419.8389,88.3252,423.8389" style="stroke:#181818;stroke-width:1;"/><line style="stroke:#181818;stroke-width:1;" x1="268.6279" x2="268.6279" y1="517.7764" y2="575.7451"/><line style="stroke:#181818;stroke-width:1;" x1="268.6279" x2="549.5869" y1="575.7451" y2="575.7451"/><line style="stroke:#181818;stroke-width:1;" x1="549.5869" x2="549.5869" y1="575.7451" y2="593.7451"/><line style="stroke:#181818;stroke-width:1;" x1="549.5869" x2="531.5869" y1="593.7451" y2="593.7451"/><polygon fill="#181818" points="541.5869,589.7451,531.5869,593.7451,541.5869,597.7451,537.5869,593.7451" style="stroke:#181818;stroke-width:1;"/><line style="stroke:#181818;stroke-width:1;" x1="519.5869" x2="519.5869" y1="605.7451" y2="610.7451"/><line style="stroke:#181818;stroke-width:1;" x1="519.5869" x2="178.4766" y1="610.7451" y2="610.7451"/><line style="stroke:#181818;stroke-width:1;" x1="178.4766" x2="178.4766" y1="610.7451" y2="625.7451"/><polygon fill="#181818" points="174.4766,615.7451,178.4766,625.7451,182.4766,615.7451,178.4766,619.7451" style="stroke:#181818;stroke-width:1;"/><text fill="#000000" font-family="sans-serif" font-size="18" lengthAdjust="spacing" textLength="199.5996" x="74.8481" y="66.75">Academic Affairs Staff</text><text fill="#000000" font-family="sans-serif" font-size="18" lengthAdjust="spacing" textLength="67.1221" x="476.0376" y="66.75">System</text><!--SRC=[ZL71QiCm3BtxAtHi3_k1v32oT8STMiR21ZiAHswrEdQGvOv0FtvEQ6635kQ3mBmdlQSdPVK4ZLK-iKwmOTmB3XLiCU2Uu5NY_8TE9LlDGh1gOwbFEN6WbDR6d1kBFGrieN4EML8XetDdanH5JTMH9wjt1zPbGZSbfU5igWsdqUC4RHQXeBVPz_Igzx57fQMPRVPvW0qgrgPg-g-S55gXdXKQxwD5vHZ-QBS7iiShfut3w1c3dHNPmUebNQ4FzDm_ha4F563rIIK3AE-khHciEZmLOp4utcUvQ2zTL_c5TLdWnjOBl8lARe8kMrkYhmtvLEwnY-iRexf3_8PdaIYmBUGIVVqFcs_qWB-pcaL2pywKOyRn1m00]--></g></svg>