<svg xmlns="http://www.w3.org/2000/svg" xmlns:xlink="http://www.w3.org/1999/xlink" contentStyleType="text/css" data-diagram-type="SEQUENCE" height="906px" preserveAspectRatio="none" style="width:780px;height:906px;background:#FFFFFF;" version="1.1" viewBox="0 0 780 906" width="780px" zoomAndPan="magnify"><title>Sequence Diagram: Syllabus Approval Function</title><defs/><g><text fill="#000000" font-family="sans-serif" font-size="14" font-weight="bold" lengthAdjust="spacing" textLength="374.9648" x="203.6895" y="27.9951">Sequence Diagram: Syllabus Approval Function</text><g><title>Academic Affairs Staff</title><rect fill="#FFFFFF" height="686.8594" style="stroke:#181818;stroke-width:1;" width="10" x="95.6221" y="128.5938"/></g><g><title>Web Interface</title><rect fill="#FFFFFF" height="665.7266" style="stroke:#181818;stroke-width:1;" width="10" x="283.4512" y="149.7266"/></g><g><title>System Controller</title><rect fill="#FFFFFF" height="87.3984" style="stroke:#181818;stroke-width:1;" width="10" x="481.0767" y="178.8594"/></g><g><title>System Controller</title><rect fill="#FFFFFF" height="87.3984" style="stroke:#181818;stroke-width:1;" width="10" x="481.0767" y="324.5234"/></g><g><title>System Controller</title><rect fill="#FFFFFF" height="87.3984" style="stroke:#181818;stroke-width:1;" width="10" x="481.0767" y="494.3203"/></g><g><title>System Controller</title><rect fill="#FFFFFF" height="87.3984" style="stroke:#181818;stroke-width:1;" width="10" x="481.0767" y="713.0547"/></g><g><title>PLO Service</title><rect fill="#FFFFFF" height="29.1328" style="stroke:#181818;stroke-width:1;" width="10" x="626.8164" y="353.6563"/></g><g><title>Database</title><rect fill="#FFFFFF" height="29.1328" style="stroke:#181818;stroke-width:1;" width="10" x="721.9434" y="207.9922"/></g><g><title>Database</title><rect fill="#FFFFFF" height="29.1328" style="stroke:#181818;stroke-width:1;" width="10" x="721.9434" y="523.4531"/></g><g><title>Database</title><rect fill="#FFFFFF" height="29.1328" style="stroke:#181818;stroke-width:1;" width="10" x="721.9434" y="742.1875"/></g><rect fill="none" height="381.5313" style="stroke:#000000;stroke-width:1.5;" width="763.3438" x="10" y="426.9219"/><g><title>Academic Affairs Staff</title><rect fill="#000000" fill-opacity="0.00000" height="706.8594" width="8" x="96.6221" y="118.5938"/><line style="stroke:#181818;stroke-width:0.5;stroke-dasharray:5,5;" x1="100" x2="100" y1="118.5938" y2="825.4531"/></g><g><title>Web Interface</title><rect fill="#000000" fill-opacity="0.00000" height="706.8594" width="8" x="284.4512" y="118.5938"/><line style="stroke:#181818;stroke-width:0.5;stroke-dasharray:5,5;" x1="288.2153" x2="288.2153" y1="118.5938" y2="825.4531"/></g><g><title>System Controller</title><rect fill="#000000" fill-opacity="0.00000" height="706.8594" width="8" x="482.0767" y="118.5938"/><line style="stroke:#181818;stroke-width:0.5;stroke-dasharray:5,5;" x1="485.1621" x2="485.1621" y1="118.5938" y2="825.4531"/></g><g><title>PLO Service</title><rect fill="#000000" fill-opacity="0.00000" height="706.8594" width="8" x="627.8164" y="118.5938"/><line style="stroke:#181818;stroke-width:0.5;stroke-dasharray:5,5;" x1="631.0898" x2="631.0898" y1="118.5938" y2="825.4531"/></g><g><title>Database</title><rect fill="#000000" fill-opacity="0.00000" height="706.8594" width="8" x="722.9434" y="118.5938"/><line style="stroke:#181818;stroke-width:0.5;stroke-dasharray:5,5;" x1="726.543" x2="726.543" y1="118.5938" y2="825.4531"/></g><g class="participant participant-head" data-participant="AA"><text fill="#000000" font-family="sans-serif" font-size="14" lengthAdjust="spacing" textLength="155.2441" x="20" y="115.292">Academic Affairs Staff</text><ellipse cx="100.6221" cy="50.7969" fill="#E2E2F0" rx="8" ry="8" style="stroke:#181818;stroke-width:0.5;"/><path d="M100.6221,58.7969 L100.6221,85.7969 M87.6221,66.7969 L113.6221,66.7969 M100.6221,85.7969 L87.6221,100.7969 M100.6221,85.7969 L113.6221,100.7969" fill="none" style="stroke:#181818;stroke-width:0.5;"/></g><g class="participant participant-tail" data-participant="AA"><text fill="#000000" font-family="sans-serif" font-size="14" lengthAdjust="spacing" textLength="155.2441" x="20" y="837.4482">Academic Affairs Staff</text><ellipse cx="100.6221" cy="849.25" fill="#E2E2F0" rx="8" ry="8" style="stroke:#181818;stroke-width:0.5;"/><path d="M100.6221,857.25 L100.6221,884.25 M87.6221,865.25 L113.6221,865.25 M100.6221,884.25 L87.6221,899.25 M100.6221,884.25 L113.6221,899.25" fill="none" style="stroke:#181818;stroke-width:0.5;"/></g><g class="participant participant-head" data-participant="UI"><rect fill="#E2E2F0" height="30.2969" rx="2.5" ry="2.5" style="stroke:#181818;stroke-width:0.5;" width="112.4717" x="232.2153" y="87.2969"/><text fill="#000000" font-family="sans-serif" font-size="14" lengthAdjust="spacing" textLength="98.4717" x="239.2153" y="107.292">Web Interface</text></g><g class="participant participant-tail" data-participant="UI"><rect fill="#E2E2F0" height="30.2969" rx="2.5" ry="2.5" style="stroke:#181818;stroke-width:0.5;" width="112.4717" x="232.2153" y="824.4531"/><text fill="#000000" font-family="sans-serif" font-size="14" lengthAdjust="spacing" textLength="98.4717" x="239.2153" y="844.4482">Web Interface</text></g><g class="participant participant-head" data-participant="Ctrl"><rect fill="#E2E2F0" height="30.2969" rx="2.5" ry="2.5" style="stroke:#181818;stroke-width:0.5;" width="139.8291" x="416.1621" y="87.2969"/><text fill="#000000" font-family="sans-serif" font-size="14" lengthAdjust="spacing" textLength="125.8291" x="423.1621" y="107.292">System Controller</text></g><g class="participant participant-tail" data-participant="Ctrl"><rect fill="#E2E2F0" height="30.2969" rx="2.5" ry="2.5" style="stroke:#181818;stroke-width:0.5;" width="139.8291" x="416.1621" y="824.4531"/><text fill="#000000" font-family="sans-serif" font-size="14" lengthAdjust="spacing" textLength="125.8291" x="423.1621" y="844.4482">System Controller</text></g><g class="participant participant-head" data-participant="PLO"><rect fill="#E2E2F0" height="30.2969" rx="2.5" ry="2.5" style="stroke:#181818;stroke-width:0.5;" width="97.4531" x="583.0898" y="87.2969"/><text fill="#000000" font-family="sans-serif" font-size="14" lengthAdjust="spacing" textLength="83.4531" x="590.0898" y="107.292">PLO Service</text></g><g class="participant participant-tail" data-participant="PLO"><rect fill="#E2E2F0" height="30.2969" rx="2.5" ry="2.5" style="stroke:#181818;stroke-width:0.5;" width="97.4531" x="583.0898" y="824.4531"/><text fill="#000000" font-family="sans-serif" font-size="14" lengthAdjust="spacing" textLength="83.4531" x="590.0898" y="844.4482">PLO Service</text></g><g class="participant participant-head" data-participant="DB"><text fill="#000000" font-family="sans-serif" font-size="14" lengthAdjust="spacing" textLength="66.8008" x="690.543" y="115.292">Database</text><path d="M708.9434,66.2969 C708.9434,56.2969 726.9434,56.2969 726.9434,56.2969 C726.9434,56.2969 744.9434,56.2969 744.9434,66.2969 L744.9434,92.2969 C744.9434,102.2969 726.9434,102.2969 726.9434,102.2969 C726.9434,102.2969 708.9434,102.2969 708.9434,92.2969 L708.9434,66.2969" fill="#E2E2F0" style="stroke:#181818;stroke-width:0.5;"/><path d="M708.9434,66.2969 C708.9434,76.2969 726.9434,76.2969 726.9434,76.2969 C726.9434,76.2969 744.9434,76.2969 744.9434,66.2969" fill="none" style="stroke:#181818;stroke-width:0.5;"/></g><g class="participant participant-tail" data-participant="DB"><text fill="#000000" font-family="sans-serif" font-size="14" lengthAdjust="spacing" textLength="66.8008" x="690.543" y="837.4482">Database</text><path d="M708.9434,850.75 C708.9434,840.75 726.9434,840.75 726.9434,840.75 C726.9434,840.75 744.9434,840.75 744.9434,850.75 L744.9434,876.75 C744.9434,886.75 726.9434,886.75 726.9434,886.75 C726.9434,886.75 708.9434,886.75 708.9434,876.75 L708.9434,850.75" fill="#E2E2F0" style="stroke:#181818;stroke-width:0.5;"/><path d="M708.9434,850.75 C708.9434,860.75 726.9434,860.75 726.9434,860.75 C726.9434,860.75 744.9434,860.75 744.9434,850.75" fill="none" style="stroke:#181818;stroke-width:0.5;"/></g><g><title>Academic Affairs Staff</title><rect fill="#FFFFFF" height="686.8594" style="stroke:#181818;stroke-width:1;" width="10" x="95.6221" y="128.5938"/></g><g><title>Web Interface</title><rect fill="#FFFFFF" height="665.7266" style="stroke:#181818;stroke-width:1;" width="10" x="283.4512" y="149.7266"/></g><g><title>System Controller</title><rect fill="#FFFFFF" height="87.3984" style="stroke:#181818;stroke-width:1;" width="10" x="481.0767" y="178.8594"/></g><g><title>System Controller</title><rect fill="#FFFFFF" height="87.3984" style="stroke:#181818;stroke-width:1;" width="10" x="481.0767" y="324.5234"/></g><g><title>System Controller</title><rect fill="#FFFFFF" height="87.3984" style="stroke:#181818;stroke-width:1;" width="10" x="481.0767" y="494.3203"/></g><g><title>System Controller</title><rect fill="#FFFFFF" height="87.3984" style="stroke:#181818;stroke-width:1;" width="10" x="481.0767" y="713.0547"/></g><g><title>PLO Service</title><rect fill="#FFFFFF" height="29.1328" style="stroke:#181818;stroke-width:1;" width="10" x="626.8164" y="353.6563"/></g><g><title>Database</title><rect fill="#FFFFFF" height="29.1328" style="stroke:#181818;stroke-width:1;" width="10" x="721.9434" y="207.9922"/></g><g><title>Database</title><rect fill="#FFFFFF" height="29.1328" style="stroke:#181818;stroke-width:1;" width="10" x="721.9434" y="523.4531"/></g><g><title>Database</title><rect fill="#FFFFFF" height="29.1328" style="stroke:#181818;stroke-width:1;" width="10" x="721.9434" y="742.1875"/></g><g class="message" data-participant-1="AA" data-participant-2="UI"><polygon fill="#181818" points="271.4512,145.7266,281.4512,149.7266,271.4512,153.7266,275.4512,149.7266" style="stroke:#181818;stroke-width:1;"/><line style="stroke:#181818;stroke-width:1;" x1="105.6221" x2="277.4512" y1="149.7266" y2="149.7266"/><text fill="#000000" font-family="sans-serif" font-size="13" lengthAdjust="spacing" textLength="138.8677" x="112.6221" y="144.6606">View Syllabus Details</text></g><g class="message" data-participant-1="UI" data-participant-2="Ctrl"><polygon fill="#181818" points="469.0767,174.8594,479.0767,178.8594,469.0767,182.8594,473.0767,178.8594" style="stroke:#181818;stroke-width:1;"/><line style="stroke:#181818;stroke-width:1;" x1="293.4512" x2="475.0767" y1="178.8594" y2="178.8594"/><text fill="#000000" font-family="sans-serif" font-size="13" lengthAdjust="spacing" textLength="87.7119" x="300.4512" y="173.7935">GetSyllabus()</text></g><g class="message" data-participant-1="Ctrl" data-participant-2="DB"><polygon fill="#181818" points="709.9434,203.9922,719.9434,207.9922,709.9434,211.9922,713.9434,207.9922" style="stroke:#181818;stroke-width:1;"/><line style="stroke:#181818;stroke-width:1;" x1="491.0767" x2="715.9434" y1="207.9922" y2="207.9922"/><text fill="#000000" font-family="sans-serif" font-size="13" lengthAdjust="spacing" textLength="68.1802" x="498.0767" y="202.9263">FindByID()</text></g><g class="message" data-participant-1="DB" data-participant-2="Ctrl"><polygon fill="#181818" points="502.0767,233.125,492.0767,237.125,502.0767,241.125,498.0767,237.125" style="stroke:#181818;stroke-width:1;"/><line style="stroke:#181818;stroke-width:1;stroke-dasharray:2,2;" x1="496.0767" x2="725.9434" y1="237.125" y2="237.125"/><text fill="#000000" font-family="sans-serif" font-size="13" lengthAdjust="spacing" textLength="89.5718" x="508.0767" y="232.0591">Syllabus Data</text></g><g class="message" data-participant-1="Ctrl" data-participant-2="UI"><polygon fill="#181818" points="304.4512,262.2578,294.4512,266.2578,304.4512,270.2578,300.4512,266.2578" style="stroke:#181818;stroke-width:1;"/><line style="stroke:#181818;stroke-width:1;stroke-dasharray:2,2;" x1="298.4512" x2="485.0767" y1="266.2578" y2="266.2578"/><text fill="#000000" font-family="sans-serif" font-size="13" lengthAdjust="spacing" textLength="83.0908" x="310.4512" y="261.1919">Display Data</text></g><g class="message" data-participant-1="AA" data-participant-2="UI"><polygon fill="#181818" points="271.4512,291.3906,281.4512,295.3906,271.4512,299.3906,275.4512,295.3906" style="stroke:#181818;stroke-width:1;"/><line style="stroke:#181818;stroke-width:1;" x1="105.6221" x2="277.4512" y1="295.3906" y2="295.3906"/><text fill="#000000" font-family="sans-serif" font-size="13" lengthAdjust="spacing" textLength="126.9595" x="112.6221" y="290.3247">Request PLO Check</text></g><g class="message" data-participant-1="UI" data-participant-2="Ctrl"><polygon fill="#181818" points="469.0767,320.5234,479.0767,324.5234,469.0767,328.5234,473.0767,324.5234" style="stroke:#181818;stroke-width:1;"/><line style="stroke:#181818;stroke-width:1;" x1="293.4512" x2="475.0767" y1="324.5234" y2="324.5234"/><text fill="#000000" font-family="sans-serif" font-size="13" lengthAdjust="spacing" textLength="140.061" x="300.4512" y="319.4575">ValidateCompliance()</text></g><g class="message" data-participant-1="Ctrl" data-participant-2="PLO"><polygon fill="#181818" points="614.8164,349.6563,624.8164,353.6563,614.8164,357.6563,618.8164,353.6563" style="stroke:#181818;stroke-width:1;"/><line style="stroke:#181818;stroke-width:1;" x1="491.0767" x2="620.8164" y1="353.6563" y2="353.6563"/><text fill="#000000" font-family="sans-serif" font-size="13" lengthAdjust="spacing" textLength="116.7397" x="498.0767" y="348.5903">CheckAlignment()</text></g><g class="message" data-participant-1="PLO" data-participant-2="Ctrl"><polygon fill="#181818" points="502.0767,378.7891,492.0767,382.7891,502.0767,386.7891,498.0767,382.7891" style="stroke:#181818;stroke-width:1;"/><line style="stroke:#181818;stroke-width:1;stroke-dasharray:2,2;" x1="496.0767" x2="630.8164" y1="382.7891" y2="382.7891"/><text fill="#000000" font-family="sans-serif" font-size="13" lengthAdjust="spacing" textLength="110.0874" x="508.0767" y="377.7231">Validation Result</text></g><g class="message" data-participant-1="Ctrl" data-participant-2="UI"><polygon fill="#181818" points="304.4512,407.9219,294.4512,411.9219,304.4512,415.9219,300.4512,411.9219" style="stroke:#181818;stroke-width:1;"/><line style="stroke:#181818;stroke-width:1;stroke-dasharray:2,2;" x1="298.4512" x2="485.0767" y1="411.9219" y2="411.9219"/><text fill="#000000" font-family="sans-serif" font-size="13" lengthAdjust="spacing" textLength="79.9614" x="310.4512" y="406.856">Show Result</text></g><path d="M10,426.9219 L74.4429,426.9219 L74.4429,434.0547 L64.4429,444.0547 L10,444.0547 L10,426.9219" fill="#EEEEEE" style="stroke:#000000;stroke-width:1.5;"/><rect fill="none" height="381.5313" style="stroke:#000000;stroke-width:1.5;" width="763.3438" x="10" y="426.9219"/><text fill="#000000" font-family="sans-serif" font-size="13" font-weight="bold" lengthAdjust="spacing" textLength="19.4429" x="25" y="439.9888">alt</text><text fill="#000000" font-family="sans-serif" font-size="11" font-weight="bold" lengthAdjust="spacing" textLength="61.9287" x="89.4429" y="439.1323">[Approve]</text><g class="message" data-participant-1="AA" data-participant-2="UI"><polygon fill="#181818" points="271.4512,461.1875,281.4512,465.1875,271.4512,469.1875,275.4512,465.1875" style="stroke:#181818;stroke-width:1;"/><line style="stroke:#181818;stroke-width:1;" x1="105.6221" x2="277.4512" y1="465.1875" y2="465.1875"/><text fill="#000000" font-family="sans-serif" font-size="13" lengthAdjust="spacing" textLength="112.9185" x="112.6221" y="460.1216">Approve Syllabus</text></g><g class="message" data-participant-1="UI" data-participant-2="Ctrl"><polygon fill="#181818" points="469.0767,490.3203,479.0767,494.3203,469.0767,498.3203,473.0767,494.3203" style="stroke:#181818;stroke-width:1;"/><line style="stroke:#181818;stroke-width:1;" x1="293.4512" x2="475.0767" y1="494.3203" y2="494.3203"/><text fill="#000000" font-family="sans-serif" font-size="13" lengthAdjust="spacing" textLength="117.9395" x="300.4512" y="489.2544">ProcessApproval()</text></g><g class="message" data-participant-1="Ctrl" data-participant-2="DB"><polygon fill="#181818" points="709.9434,519.4531,719.9434,523.4531,709.9434,527.4531,713.9434,523.4531" style="stroke:#181818;stroke-width:1;"/><line style="stroke:#181818;stroke-width:1;" x1="491.0767" x2="715.9434" y1="523.4531" y2="523.4531"/><text fill="#000000" font-family="sans-serif" font-size="13" lengthAdjust="spacing" textLength="161.2876" x="498.0767" y="518.3872">UpdateStatus(Approved)</text></g><g class="message" data-participant-1="DB" data-participant-2="Ctrl"><polygon fill="#181818" points="502.0767,548.5859,492.0767,552.5859,502.0767,556.5859,498.0767,552.5859" style="stroke:#181818;stroke-width:1;"/><line style="stroke:#181818;stroke-width:1;stroke-dasharray:2,2;" x1="496.0767" x2="725.9434" y1="552.5859" y2="552.5859"/><text fill="#000000" font-family="sans-serif" font-size="13" lengthAdjust="spacing" textLength="52.3301" x="508.0767" y="547.52">Success</text></g><g class="message" data-participant-1="Ctrl" data-participant-2="UI"><polygon fill="#181818" points="304.4512,577.7188,294.4512,581.7188,304.4512,585.7188,300.4512,581.7188" style="stroke:#181818;stroke-width:1;"/><line style="stroke:#181818;stroke-width:1;stroke-dasharray:2,2;" x1="298.4512" x2="485.0767" y1="581.7188" y2="581.7188"/><text fill="#000000" font-family="sans-serif" font-size="13" lengthAdjust="spacing" textLength="152.6484" x="310.4512" y="576.6528">Show Success Message</text></g><line style="stroke:#000000;stroke-width:1;stroke-dasharray:2,2;" x1="10" x2="773.3438" y1="590.7188" y2="590.7188"/><text fill="#000000" font-family="sans-serif" font-size="11" font-weight="bold" lengthAdjust="spacing" textLength="48.9951" x="15" y="600.9292">[Reject]</text><g class="message" data-participant-1="AA" data-participant-2="UI"><polygon fill="#181818" points="271.4512,621.6563,281.4512,625.6563,271.4512,629.6563,275.4512,625.6563" style="stroke:#181818;stroke-width:1;"/><line style="stroke:#181818;stroke-width:1;" x1="105.6221" x2="277.4512" y1="625.6563" y2="625.6563"/><text fill="#000000" font-family="sans-serif" font-size="13" lengthAdjust="spacing" textLength="99.417" x="112.6221" y="620.5903">Reject Syllabus</text></g><g class="message" data-participant-1="UI" data-participant-2="AA"><polygon fill="#181818" points="116.6221,650.7891,106.6221,654.7891,116.6221,658.7891,112.6221,654.7891" style="stroke:#181818;stroke-width:1;"/><line style="stroke:#181818;stroke-width:1;stroke-dasharray:2,2;" x1="110.6221" x2="282.4512" y1="654.7891" y2="654.7891"/><text fill="#000000" font-family="sans-serif" font-size="13" lengthAdjust="spacing" textLength="105.4854" x="122.6221" y="649.7231">Request Reason</text></g><g class="message" data-participant-1="AA" data-participant-2="UI"><polygon fill="#181818" points="271.4512,679.9219,281.4512,683.9219,271.4512,687.9219,275.4512,683.9219" style="stroke:#181818;stroke-width:1;"/><line style="stroke:#181818;stroke-width:1;" x1="105.6221" x2="277.4512" y1="683.9219" y2="683.9219"/><text fill="#000000" font-family="sans-serif" font-size="13" lengthAdjust="spacing" textLength="153.8291" x="112.6221" y="678.856">Input Comment/Reason</text></g><g class="message" data-participant-1="UI" data-participant-2="Ctrl"><polygon fill="#181818" points="469.0767,709.0547,479.0767,713.0547,469.0767,717.0547,473.0767,713.0547" style="stroke:#181818;stroke-width:1;"/><line style="stroke:#181818;stroke-width:1;" x1="293.4512" x2="475.0767" y1="713.0547" y2="713.0547"/><text fill="#000000" font-family="sans-serif" font-size="13" lengthAdjust="spacing" textLength="168.6255" x="300.4512" y="707.9888">ProcessRejection(Reason)</text></g><g class="message" data-participant-1="Ctrl" data-participant-2="DB"><polygon fill="#181818" points="709.9434,738.1875,719.9434,742.1875,709.9434,746.1875,713.9434,742.1875" style="stroke:#181818;stroke-width:1;"/><line style="stroke:#181818;stroke-width:1;" x1="491.0767" x2="715.9434" y1="742.1875" y2="742.1875"/><text fill="#000000" font-family="sans-serif" font-size="13" lengthAdjust="spacing" textLength="155.7842" x="498.0767" y="737.1216">UpdateStatus(Rejected)</text></g><g class="message" data-participant-1="DB" data-participant-2="Ctrl"><polygon fill="#181818" points="502.0767,767.3203,492.0767,771.3203,502.0767,775.3203,498.0767,771.3203" style="stroke:#181818;stroke-width:1;"/><line style="stroke:#181818;stroke-width:1;stroke-dasharray:2,2;" x1="496.0767" x2="725.9434" y1="771.3203" y2="771.3203"/><text fill="#000000" font-family="sans-serif" font-size="13" lengthAdjust="spacing" textLength="52.3301" x="508.0767" y="766.2544">Success</text></g><g class="message" data-participant-1="Ctrl" data-participant-2="UI"><polygon fill="#181818" points="304.4512,796.4531,294.4512,800.4531,304.4512,804.4531,300.4512,800.4531" style="stroke:#181818;stroke-width:1;"/><line style="stroke:#181818;stroke-width:1;stroke-dasharray:2,2;" x1="298.4512" x2="485.0767" y1="800.4531" y2="800.4531"/><text fill="#000000" font-family="sans-serif" font-size="13" lengthAdjust="spacing" textLength="161.0083" x="310.4512" y="795.3872">Show Rejection Message</text></g><!--SRC=[jLEnRjim4Dtr5GTFwM1qrr20jf32G8C45fpEP-haiAKebJmvyD_tA2aMvQG5EjI3O9AFzzwxTsJ3bg2aNpqvJL0OF7biSYWlrkAn3w2wphTdj73VEyscTLc6cbiFAwMneiPeK7MDnWSe6Ujw1IYNLDQXPwDDXuvXzPsEi7DClaPD0-AmMoBAIs1gODiwzgsrv0VKbhrTufw-FOfQVpPJ7Lbd5J8UCH2iYkdVS5Hi1gdcZ4nHKQOKhBy8SmxFXbvdYmKn6Xjci8Wxx28sykVmbVWDU_TfHWtYuYSYYqqEzyPLcykkI44YejZ0-bfh9XMfMKKfSAmrIInCw2nUtk46riJAFaONE3O2jY-aVowaFwCrqXxQjard3Kh4VtGW1VAnWhBcv1fod69ZeoF7-hQsZ8I82BtbL6Q4B_oKB-th1xZH3bgU1eqoaDziRzgzzcquJXq- -LPJ26zZAf8ZOba_xgH17RhO4nbNbaGdXkhcekGHrylmUXsvXeDbT3D3QdV2muDyy4ItzmPjP6Lmz_I3DDzO7pVVEvTZfURWzuH1NkNoxivrFSjhQcACdnF81wqRUIJ6kn7tpnqS2_oN3bwr_Rs7hihIePBtcwoK-Wq0]--></g></svg>