<svg xmlns="http://www.w3.org/2000/svg" xmlns:xlink="http://www.w3.org/1999/xlink" contentStyleType="text/css" data-diagram-type="STATE" height="380px" preserveAspectRatio="none" style="width:518px;height:380px;background:#FFFFFF;" version="1.1" viewBox="0 0 518 380" width="518px" zoomAndPan="magnify"><title>State Machine Diagram: Syllabus Status (AA Context)</title><defs/><g><g class="title" data-source-line="1"><text fill="#000000" font-family="sans-serif" font-size="14" font-weight="bold" lengthAdjust="spacing" textLength="424.0127" x="40.4736" y="22.9951">State Machine Diagram: Syllabus Status (AA Context)</text></g><!--cluster Pending_AA_Review--><g class="cluster" data-entity="Pending_AA_Review" data-source-line="5" data-uid="ent0002" id="cluster_Pending_AA_Review"><path d="M19.5,118.2969 L261.5,118.2969 A12.5,12.5 0 0 1 274,130.7969 L274,139.5938 L7,139.5938 L7,130.7969 A12.5,12.5 0 0 1 19.5,118.2969" fill="#F1F1F1"/><rect fill="none" height="178.72" rx="12.5" ry="12.5" style="stroke:#181818;stroke-width:0.5;" width="267" x="7" y="118.2969"/><line style="stroke:#181818;stroke-width:0.5;" x1="7" x2="274" y1="139.5938" y2="139.5938"/><text fill="#000000" font-family="sans-serif" font-size="14" lengthAdjust="spacing" textLength="140.1982" x="70.4009" y="135.292">Pending_AA_Review</text></g><g id="Pending_AA_Review.Checking_Compliance"><rect fill="#F1F1F1" height="50" rx="12.5" ry="12.5" style="stroke:#181818;stroke-width:0.5;" width="174.123" x="50.94" y="223.0169"/><line style="stroke:#181818;stroke-width:0.5;" x1="50.94" x2="225.063" y1="249.3138" y2="249.3138"/><text fill="#000000" font-family="sans-serif" font-size="14" lengthAdjust="spacing" textLength="154.123" x="60.94" y="241.012">Checking_Compliance</text></g><ellipse cx="212" cy="53.2969" fill="#222222" rx="10" ry="10" style="stroke:#222222;stroke-width:1;"/><g id="Approved"><rect fill="#F1F1F1" height="50" rx="12.5" ry="12.5" style="stroke:#181818;stroke-width:0.5;" width="87.457" x="298.27" y="223.0169"/><line style="stroke:#181818;stroke-width:0.5;" x1="298.27" x2="385.727" y1="249.3138" y2="249.3138"/><text fill="#000000" font-family="sans-serif" font-size="14" lengthAdjust="spacing" textLength="67.457" x="308.27" y="241.012">Approved</text></g><g id="Rejected"><rect fill="#F1F1F1" height="50" rx="12.5" ry="12.5" style="stroke:#181818;stroke-width:0.5;" width="81.5303" x="420.23" y="223.0169"/><line style="stroke:#181818;stroke-width:0.5;" x1="420.23" x2="501.7603" y1="249.3138" y2="249.3138"/><text fill="#000000" font-family="sans-serif" font-size="14" lengthAdjust="spacing" textLength="61.5303" x="430.23" y="241.012">Rejected</text></g><ellipse cx="401" cy="363.0169" fill="none" rx="11" ry="11" style="stroke:#222222;stroke-width:1;"/><ellipse cx="401" cy="363.0169" fill="#222222" rx="6" ry="6" style="stroke:#222222;stroke-width:1;"/><!--link *start* to Pending_AA_Review--><g class="link" data-entity-1=".start." data-entity-2="Pending_AA_Review" data-link-type="dependency" data-source-line="3" data-uid="lnk3" id="link_.start._Pending_AA_Review"><path d="M212,63.6269 C212,74.8119 212,94.1719 212,111.1631 C212,113.287 212,115.3739 212,117.4032 C212,117.6569 212,111.9096 212,112.1615" fill="none" id="*start*-to-Pending_AA_Review" style="stroke:#181818;stroke-width:1;"/><polygon fill="#181818" points="212,118.1615,216,109.1615,212,113.1615,208,109.1615,212,118.1615" style="stroke:#181818;stroke-width:1;"/></g><!--link Pending_AA_Review to Checking_Compliance--><g class="link" data-entity-1="Pending_AA_Review" data-entity-2="Checking_Compliance" data-link-type="dependency" data-source-line="6" data-uid="lnk5" id="link_Pending_AA_Review_Checking_Compliance"><path d="M211.59,146.0169 C203.29,146.1269 70.13,148.2969 47,176.0169 C32.11,193.8669 44.0927,207.2993 67.4627,219.7293" fill="none" id="Pending_AA_Review-to-Checking_Compliance" style="stroke:#181818;stroke-width:1;"/><polygon fill="#181818" points="72.76,222.5469,66.6924,214.789,68.3456,220.1989,62.9357,221.8521,72.76,222.5469" style="stroke:#181818;stroke-width:1;"/><text fill="#000000" font-family="sans-serif" font-size="13" lengthAdjust="spacing" textLength="67.5645" x="48" y="189.0838">Verify PLO</text></g><!--link Checking_Compliance to Pending_AA_Review--><g class="link" data-entity-1="Checking_Compliance" data-entity-2="Pending_AA_Review" data-link-type="dependency" data-source-line="7" data-uid="lnk6" id="link_Checking_Compliance_Pending_AA_Review"><path d="M142.28,222.6169 C145.85,207.8869 152.15,189.4269 163,176.0169 C178.05,157.4069 202.2411,149.173 205.9211,147.983" fill="none" id="Checking_Compliance-to-Pending_AA_Review" style="stroke:#181818;stroke-width:1;"/><polygon fill="#181818" points="211.63,146.1369,201.8359,145.1001,206.8726,147.6753,204.2973,152.712,211.63,146.1369" style="stroke:#181818;stroke-width:1;"/><text fill="#000000" font-family="sans-serif" font-size="13" lengthAdjust="spacing" textLength="105.0854" x="164" y="189.0838">Result Returned</text></g><!--link Pending_AA_Review to Approved--><g class="link" data-entity-1="Pending_AA_Review" data-entity-2="Approved" data-link-type="dependency" data-source-line="10" data-uid="lnk8" id="link_Pending_AA_Review_Approved"><path d="M274,176.0169 C292.36,189.3669 306.097,203.4498 318.807,218.2898" fill="none" id="Pending_AA_Review-to-Approved" style="stroke:#181818;stroke-width:1;"/><polygon fill="#181818" points="322.71,222.8469,319.8936,213.4093,319.4575,219.0493,313.8175,218.6133,322.71,222.8469" style="stroke:#181818;stroke-width:1;"/><text fill="#000000" font-family="sans-serif" font-size="13" lengthAdjust="spacing" textLength="99.4614" x="294" y="189.0838">Approve Action</text></g><!--link Pending_AA_Review to Rejected--><g class="link" data-entity-1="Pending_AA_Review" data-entity-2="Rejected" data-link-type="dependency" data-source-line="12" data-uid="lnk10" id="link_Pending_AA_Review_Rejected"><path d="M274.3726,151.1009 C274.6784,151.1315 274.9847,151.1623 275.2916,151.1933 C277.7466,151.4409 280.2354,151.6978 282.7508,151.9641 C287.7815,152.4968 292.9186,153.067 298.1038,153.6756 C339.585,158.5444 384.145,165.8669 402,176.0169 C421.23,186.9469 433.6026,201.6946 443.9326,217.6046" fill="none" id="Pending_AA_Review-to-Rejected" style="stroke:#181818;stroke-width:1;"/><polygon fill="#181818" points="447.2,222.6369,445.6538,212.9101,444.4772,218.4433,438.9441,217.2666,447.2,222.6369" style="stroke:#181818;stroke-width:1;"/><text fill="#000000" font-family="sans-serif" font-size="13" lengthAdjust="spacing" textLength="85.96" x="425" y="189.0838">Reject Action</text></g><!--link Approved to *end*--><g class="link" data-entity-1="Approved" data-entity-2=".end." data-link-type="dependency" data-source-line="14" data-uid="lnk12" id="link_Approved_.end."><path d="M354.66,273.2569 C367.66,298.1569 384.453,330.3182 393.423,347.4982" fill="none" id="Approved-to-*end*" style="stroke:#181818;stroke-width:1;"/><polygon fill="#181818" points="396.2,352.8169,395.5803,342.9875,393.8858,348.3846,388.4887,346.6902,396.2,352.8169" style="stroke:#181818;stroke-width:1;"/></g><!--link Rejected to *end*--><g class="link" data-entity-1="Rejected" data-entity-2=".end." data-link-type="dependency" data-source-line="15" data-uid="lnk13" id="link_Rejected_.end."><path d="M448.13,273.2569 C434.91,298.1569 417.8257,330.3386 408.6957,347.5186" fill="none" id="Rejected-to-*end*" style="stroke:#181818;stroke-width:1;"/><polygon fill="#181818" points="405.88,352.8169,413.6357,346.7466,408.2264,348.4016,406.5713,342.9923,405.88,352.8169" style="stroke:#181818;stroke-width:1;"/></g><!--SRC=[TP313e8m38RlVOeUrOGNy62ou56ZmSIBCMIE2jEv4IWeCRwx0maNi9SsV__ltrBMR0WFB9bmArMcBU5QoxIGZoKU6cFafIgxlMyp8J1qbkd5Su3Juen1iC8zsKJRD1OYZgZMz0GekxpH0j-0liPw6nDcfEwj7Bf7RhIqYd29HohqjS7zPjUXKwR9FtWqeh8ox1jNXQK4FW3JBuiyBrnDYMVw4OLYxUm_8A8RAUw0tpZuXwZMvWy4WxKNlW00]--></g></svg>