<svg xmlns="http://www.w3.org/2000/svg" xmlns:xlink="http://www.w3.org/1999/xlink" contentStyleType="text/css" data-diagram-type="ACTIVITY" height="752px" preserveAspectRatio="none" style="width:775px;height:752px;background:#FFFFFF;" version="1.1" viewBox="0 0 775 752" width="775px" zoomAndPan="magnify"><title>Activity Diagram: Syllabus Review Process (Academic Affairs)</title><defs/><g><g class="title" data-source-line="1"><text fill="#000000" font-family="sans-serif" font-size="14" font-weight="bold" lengthAdjust="spacing" textLength="487.5664" x="142.4988" y="32.9951">Activity Diagram: Syllabus Review Process (Academic Affairs)</text></g><rect fill="none" height="20.9531" style="stroke:none;stroke-width:1;" width="742.564" x="15" y="50.042"/><ellipse cx="183.3501" cy="85.9951" fill="#222222" rx="10" ry="10" style="stroke:#222222;stroke-width:1;"/><rect fill="#F1F1F1" height="33.9688" rx="12.5" ry="12.5" style="stroke:#181818;stroke-width:0.5;" width="174.0781" x="96.311" y="115.9951"/><text fill="#000000" font-family="sans-serif" font-size="12" lengthAdjust="spacing" textLength="154.0781" x="106.311" y="137.1338">Select Syllabus to Review</text><rect fill="#F1F1F1" height="33.9688" rx="12.5" ry="12.5" style="stroke:#181818;stroke-width:0.5;" width="129.8223" x="118.439" y="272.335"/><text fill="#000000" font-family="sans-serif" font-size="12" lengthAdjust="spacing" textLength="109.8223" x="128.439" y="293.4736">Compare Versions</text><polygon fill="#F1F1F1" points="137.8408,223.9326,228.8594,223.9326,240.8594,235.9326,228.8594,247.9326,137.8408,247.9326,125.8408,235.9326,137.8408,223.9326" style="stroke:#181818;stroke-width:0.5;"/><text fill="#000000" font-family="sans-serif" font-size="11" lengthAdjust="spacing" textLength="19.2178" x="187.3501" y="258.1431">Yes</text><text fill="#000000" font-family="sans-serif" font-size="11" lengthAdjust="spacing" textLength="91.0186" x="137.8408" y="239.7407">Check Changes?</text><text fill="#000000" font-family="sans-serif" font-size="11" lengthAdjust="spacing" textLength="14.9585" x="240.8594" y="233.3384">No</text><polygon fill="#F1F1F1" points="183.3501,326.3037,195.3501,338.3037,183.3501,350.3037,171.3501,338.3037,183.3501,326.3037" style="stroke:#181818;stroke-width:0.5;"/><rect fill="#F1F1F1" height="33.9688" rx="12.5" ry="12.5" style="stroke:#181818;stroke-width:0.5;" width="158.5449" x="104.0776" y="370.3037"/><text fill="#000000" font-family="sans-serif" font-size="12" lengthAdjust="spacing" textLength="138.5449" x="114.0776" y="391.4424">Check PLO Compliance</text><polygon fill="#F1F1F1" points="146.072,424.2725,220.6282,424.2725,232.6282,436.2725,220.6282,448.2725,146.072,448.2725,134.072,436.2725,146.072,424.2725" style="stroke:#181818;stroke-width:0.5;"/><text fill="#000000" font-family="sans-serif" font-size="11" lengthAdjust="spacing" textLength="74.5562" x="146.072" y="440.0806">Is Compliant?</text><text fill="#000000" font-family="sans-serif" font-size="11" lengthAdjust="spacing" textLength="19.2178" x="114.8542" y="433.6782">Yes</text><text fill="#000000" font-family="sans-serif" font-size="11" lengthAdjust="spacing" textLength="14.9585" x="232.6282" y="433.6782">No</text><rect fill="#F1F1F1" height="33.9688" rx="12.5" ry="12.5" style="stroke:#181818;stroke-width:0.5;" width="124.2324" x="21" y="468.2725"/><text fill="#000000" font-family="sans-serif" font-size="12" lengthAdjust="spacing" textLength="104.2324" x="31" y="489.4111">Approve Syllabus</text><rect fill="#F1F1F1" height="33.9688" rx="12.5" ry="12.5" style="stroke:#181818;stroke-width:0.5;" width="111.7695" x="227.6992" y="468.2725"/><text fill="#000000" font-family="sans-serif" font-size="12" lengthAdjust="spacing" textLength="91.7695" x="237.6992" y="489.4111">Reject Syllabus</text><rect fill="#F1F1F1" height="33.9688" rx="12.5" ry="12.5" style="stroke:#181818;stroke-width:0.5;" width="154.3672" x="206.4004" y="522.2412"/><text fill="#000000" font-family="sans-serif" font-size="12" lengthAdjust="spacing" textLength="134.3672" x="216.4004" y="543.3799">Add Comment/Reason</text><polygon fill="#F1F1F1" points="183.3501,674.1475,195.3501,686.1475,183.3501,698.1475,171.3501,686.1475,183.3501,674.1475" style="stroke:#181818;stroke-width:0.5;"/><line style="stroke:#000000;stroke-width:1.5;" x1="15" x2="15" y1="50.042" y2="740.1475"/><rect fill="#F1F1F1" height="33.9688" rx="12.5" ry="12.5" style="stroke:#181818;stroke-width:0.5;" width="163.6777" x="480.6665" y="169.9639"/><text fill="#000000" font-family="sans-serif" font-size="12" lengthAdjust="spacing" textLength="143.6777" x="490.6665" y="191.1025">Display Syllabus Details</text><rect fill="#F1F1F1" height="33.9688" rx="12.5" ry="12.5" style="stroke:#181818;stroke-width:0.5;" width="183.0078" x="370.7676" y="522.2412"/><text fill="#000000" font-family="sans-serif" font-size="12" lengthAdjust="spacing" textLength="163.0078" x="380.7676" y="543.3799">Update Status to Approved</text><rect fill="#F1F1F1" height="33.9688" rx="12.5" ry="12.5" style="stroke:#181818;stroke-width:0.5;" width="165.5352" x="379.5039" y="576.21"/><text fill="#000000" font-family="sans-serif" font-size="12" lengthAdjust="spacing" textLength="145.5352" x="389.5039" y="597.3486">Notify Lecturer and HoD</text><rect fill="#F1F1F1" height="33.9688" rx="12.5" ry="12.5" style="stroke:#181818;stroke-width:0.5;" width="177.9277" x="573.7754" y="576.21"/><text fill="#000000" font-family="sans-serif" font-size="12" lengthAdjust="spacing" textLength="157.9277" x="583.7754" y="597.3486">Update Status to Rejected</text><rect fill="#F1F1F1" height="33.9688" rx="12.5" ry="12.5" style="stroke:#181818;stroke-width:0.5;" width="109.7246" x="607.877" y="630.1787"/><text fill="#000000" font-family="sans-serif" font-size="12" lengthAdjust="spacing" textLength="89.7246" x="617.877" y="651.3174">Notify Lecturer</text><ellipse cx="562.5054" cy="729.1475" fill="none" rx="11" ry="11" style="stroke:#222222;stroke-width:1;"/><ellipse cx="562.5054" cy="729.1475" fill="#222222" rx="6" ry="6" style="stroke:#222222;stroke-width:1;"/><line style="stroke:#000000;stroke-width:1.5;" x1="364.7676" x2="364.7676" y1="50.042" y2="740.1475"/><line style="stroke:#000000;stroke-width:1.5;" x1="755.7031" x2="755.7031" y1="50.042" y2="740.1475"/><line style="stroke:#181818;stroke-width:1;" x1="183.3501" x2="183.3501" y1="95.9951" y2="115.9951"/><polygon fill="#181818" points="179.3501,105.9951,183.3501,115.9951,187.3501,105.9951,183.3501,109.9951" style="stroke:#181818;stroke-width:1;"/><line style="stroke:#181818;stroke-width:1;" x1="183.3501" x2="183.3501" y1="247.9326" y2="272.335"/><polygon fill="#181818" points="179.3501,262.335,183.3501,272.335,187.3501,262.335,183.3501,266.335" style="stroke:#181818;stroke-width:1;"/><line style="stroke:#181818;stroke-width:1;" x1="240.8594" x2="258.2612" y1="235.9326" y2="235.9326"/><polygon fill="#181818" points="254.2612,279.3193,258.2612,289.3193,262.2612,279.3193,258.2612,283.3193" style="stroke:#181818;stroke-width:1;"/><line style="stroke:#181818;stroke-width:1;" x1="258.2612" x2="258.2612" y1="235.9326" y2="338.3037"/><line style="stroke:#181818;stroke-width:1;" x1="258.2612" x2="195.3501" y1="338.3037" y2="338.3037"/><polygon fill="#181818" points="205.3501,334.3037,195.3501,338.3037,205.3501,342.3037,201.3501,338.3037" style="stroke:#181818;stroke-width:1;"/><line style="stroke:#181818;stroke-width:1;" x1="183.3501" x2="183.3501" y1="306.3037" y2="326.3037"/><polygon fill="#181818" points="179.3501,316.3037,183.3501,326.3037,187.3501,316.3037,183.3501,320.3037" style="stroke:#181818;stroke-width:1;"/><line style="stroke:#181818;stroke-width:1;" x1="183.3501" x2="183.3501" y1="350.3037" y2="370.3037"/><polygon fill="#181818" points="179.3501,360.3037,183.3501,370.3037,187.3501,360.3037,183.3501,364.3037" style="stroke:#181818;stroke-width:1;"/><line style="stroke:#181818;stroke-width:1;" x1="283.584" x2="283.584" y1="502.2412" y2="522.2412"/><polygon fill="#181818" points="279.584,512.2412,283.584,522.2412,287.584,512.2412,283.584,516.2412" style="stroke:#181818;stroke-width:1;"/><line style="stroke:#181818;stroke-width:1;" x1="134.072" x2="83.1162" y1="436.2725" y2="436.2725"/><line style="stroke:#181818;stroke-width:1;" x1="83.1162" x2="83.1162" y1="436.2725" y2="468.2725"/><polygon fill="#181818" points="79.1162,458.2725,83.1162,468.2725,87.1162,458.2725,83.1162,462.2725" style="stroke:#181818;stroke-width:1;"/><line style="stroke:#181818;stroke-width:1;" x1="232.6282" x2="283.584" y1="436.2725" y2="436.2725"/><line style="stroke:#181818;stroke-width:1;" x1="283.584" x2="283.584" y1="436.2725" y2="468.2725"/><polygon fill="#181818" points="279.584,458.2725,283.584,468.2725,287.584,458.2725,283.584,462.2725" style="stroke:#181818;stroke-width:1;"/><line style="stroke:#181818;stroke-width:1;" x1="183.3501" x2="183.3501" y1="404.2725" y2="424.2725"/><polygon fill="#181818" points="179.3501,414.2725,183.3501,424.2725,187.3501,414.2725,183.3501,418.2725" style="stroke:#181818;stroke-width:1;"/><line style="stroke:#181818;stroke-width:1;" x1="462.2715" x2="462.2715" y1="556.21" y2="576.21"/><polygon fill="#181818" points="458.2715,566.21,462.2715,576.21,466.2715,566.21,462.2715,570.21" style="stroke:#181818;stroke-width:1;"/><line style="stroke:#181818;stroke-width:1;" x1="662.7393" x2="662.7393" y1="610.1787" y2="630.1787"/><polygon fill="#181818" points="658.7393,620.1787,662.7393,630.1787,666.7393,620.1787,662.7393,624.1787" style="stroke:#181818;stroke-width:1;"/><line style="stroke:#181818;stroke-width:1;" x1="183.3501" x2="183.3501" y1="149.9639" y2="154.9639"/><line style="stroke:#181818;stroke-width:1;" x1="183.3501" x2="562.5054" y1="154.9639" y2="154.9639"/><line style="stroke:#181818;stroke-width:1;" x1="562.5054" x2="562.5054" y1="154.9639" y2="169.9639"/><polygon fill="#181818" points="558.5054,159.9639,562.5054,169.9639,566.5054,159.9639,562.5054,163.9639" style="stroke:#181818;stroke-width:1;"/><line style="stroke:#181818;stroke-width:1;" x1="562.5054" x2="562.5054" y1="203.9326" y2="208.9326"/><line style="stroke:#181818;stroke-width:1;" x1="562.5054" x2="183.3501" y1="208.9326" y2="208.9326"/><line style="stroke:#181818;stroke-width:1;" x1="183.3501" x2="183.3501" y1="208.9326" y2="223.9326"/><polygon fill="#181818" points="179.3501,213.9326,183.3501,223.9326,187.3501,213.9326,183.3501,217.9326" style="stroke:#181818;stroke-width:1;"/><line style="stroke:#181818;stroke-width:1;" x1="83.1162" x2="83.1162" y1="502.2412" y2="507.2412"/><line style="stroke:#181818;stroke-width:1;" x1="83.1162" x2="462.2715" y1="507.2412" y2="507.2412"/><line style="stroke:#181818;stroke-width:1;" x1="462.2715" x2="462.2715" y1="507.2412" y2="522.2412"/><polygon fill="#181818" points="458.2715,512.2412,462.2715,522.2412,466.2715,512.2412,462.2715,516.2412" style="stroke:#181818;stroke-width:1;"/><line style="stroke:#181818;stroke-width:1;" x1="283.584" x2="283.584" y1="556.21" y2="561.21"/><line style="stroke:#181818;stroke-width:1;" x1="283.584" x2="662.7393" y1="561.21" y2="561.21"/><line style="stroke:#181818;stroke-width:1;" x1="662.7393" x2="662.7393" y1="561.21" y2="576.21"/><polygon fill="#181818" points="658.7393,566.21,662.7393,576.21,666.7393,566.21,662.7393,570.21" style="stroke:#181818;stroke-width:1;"/><line style="stroke:#181818;stroke-width:1;" x1="462.2715" x2="462.2715" y1="610.1787" y2="668.1475"/><line style="stroke:#181818;stroke-width:1;" x1="462.2715" x2="153.3501" y1="668.1475" y2="668.1475"/><line style="stroke:#181818;stroke-width:1;" x1="153.3501" x2="153.3501" y1="668.1475" y2="686.1475"/><line style="stroke:#181818;stroke-width:1;" x1="153.3501" x2="171.3501" y1="686.1475" y2="686.1475"/><polygon fill="#181818" points="161.3501,682.1475,171.3501,686.1475,161.3501,690.1475,165.3501,686.1475" style="stroke:#181818;stroke-width:1;"/><line style="stroke:#181818;stroke-width:1;" x1="662.7393" x2="662.7393" y1="664.1475" y2="686.1475"/><line style="stroke:#181818;stroke-width:1;" x1="662.7393" x2="195.3501" y1="686.1475" y2="686.1475"/><polygon fill="#181818" points="205.3501,682.1475,195.3501,686.1475,205.3501,690.1475,201.3501,686.1475" style="stroke:#181818;stroke-width:1;"/><line style="stroke:#181818;stroke-width:1;" x1="183.3501" x2="183.3501" y1="698.1475" y2="703.1475"/><line style="stroke:#181818;stroke-width:1;" x1="183.3501" x2="562.5054" y1="703.1475" y2="703.1475"/><line style="stroke:#181818;stroke-width:1;" x1="562.5054" x2="562.5054" y1="703.1475" y2="718.1475"/><polygon fill="#181818" points="558.5054,708.1475,562.5054,718.1475,566.5054,708.1475,562.5054,712.1475" style="stroke:#181818;stroke-width:1;"/><text fill="#000000" font-family="sans-serif" font-size="18" lengthAdjust="spacing" textLength="199.5996" x="90.084" y="66.75">Academic Affairs Staff</text><text fill="#000000" font-family="sans-serif" font-size="18" lengthAdjust="spacing" textLength="67.1221" x="526.6743" y="66.75">System</text><!--SRC=[ZP1DJyCm38Rl-HK-jYVkxG5Lwm6aQKohGE9e4cSBf4aLUqELzkFfnzWcn10vMg-VF7x5YIUejBY3anvgXzk4RG5Dxps-xHasT73q2UiKDJ53Lcaqr3eDbRNe4kTA7N_Ee16qzgXOC8ag6lAavOAKUAAMmsxJir1xL4NjkFFONs8r2JhFvHyVE0lPOaVw0nOx35lY-nnaHm6oLnhCO7Z58hOT9e8NIknY67ZacI1RnLnHCCugLSoCzV89nhHt63GD_uxuHpxFv1TwrNKf7kXiNKxZyrLJvhapA3GwotpzQSdCuM8LnTaUbaD9-qG9C1XuYFMrw0IzrS84sT3xTSadT6NCgDzIaBiD8SVmBy4PTakm_EwD9NPV]--></g></svg>